HIERARCHY
ROOT Hips
{
  OFFSET 5.72205e-005 65.662 3.42586
  CHANNELS 6 Xposition Yposition Zposition Zrotation Xrotation Yrotation
  JOINT Chest
  {
    OFFSET 0 8.7983 -4.7612
    CHANNELS 3 Zrotation Xrotation Yrotation
    JOINT Chest2
    {
      OFFSET 0 8.0291 0.4195
      CHANNELS 3 Zrotation Xrotation Yrotation
      JOINT Chest3
      {
        OFFSET 0 9.9351 -2.2114
        CHANNELS 3 Zrotation Xrotation Yrotation
        JOINT Neck
        {
          OFFSET 0 22.3885 -0.4656
          CHANNELS 3 Zrotation Xrotation Yrotation
          JOINT Head
          {
            OFFSET -0.0001 12.643 3.4389
            CHANNELS 3 Zrotation Xrotation Yrotation
            End Site
            {
              OFFSET 0.0001 17.6655 0.5274
            }
          }
        }
        JOINT LeftCollar
        {
          OFFSET 2.2603 21.606 7.4023
          CHANNELS 3 Zrotation Xrotation Yrotation
          JOINT LeftShoulder
          {
            OFFSET 13.5163 -1.1332 -5.0146
            CHANNELS 3 Zrotation Xrotation Yrotation
            JOINT LeftElbow
            {
              OFFSET -0.0995 -28.05 -0.2431
              CHANNELS 3 Zrotation Xrotation Yrotation
              JOINT LeftWrist
              {
                OFFSET 0.0679 -23.3996 -0.1402
                CHANNELS 3 Zrotation Xrotation Yrotation
                JOINT LeftFinger1
                {
                  OFFSET 0.7932 -9.069 2.5189
                  CHANNELS 3 Zrotation Xrotation Yrotation
                  JOINT LeftFinger11
                  {
                    OFFSET -0.8272 -3.3923 0.5977
                    CHANNELS 3 Zrotation Xrotation Yrotation
                    JOINT LeftFinger12
                    {
                      OFFSET -0.5649 -2.3158 0.4082
                      CHANNELS 3 Zrotation Xrotation Yrotation
                      End Site
                      {
                        OFFSET -0.4919 -1.6479 0.2673
                      }
                    }
                  }
                }
                JOINT LeftFinger2
                {
                  OFFSET 0.9159 -9.2044 0.2193
                  CHANNELS 3 Zrotation Xrotation Yrotation
                  JOINT LeftFinger21
                  {
                    OFFSET 0.0117 -4.1944 -0.0248
                    CHANNELS 3 Zrotation Xrotation Yrotation
                    JOINT LeftFinger22
                    {
                      OFFSET 0.0071 -2.3249 -0.0142
                      CHANNELS 3 Zrotation Xrotation Yrotation
                      End Site
                      {
                        OFFSET -0.1475 -2.0882 0.0028
                      }
                    }
                  }
                }
                JOINT LeftFinger3
                {
                  OFFSET 0.6113 -8.7231 -2.0637
                  CHANNELS 3 Zrotation Xrotation Yrotation
                  JOINT LeftFinger31
                  {
                    OFFSET -0.1927 -3.8059 -0.2383
                    CHANNELS 3 Zrotation Xrotation Yrotation
                    JOINT LeftFinger32
                    {
                      OFFSET -0.1091 -2.1688 -0.1362
                      CHANNELS 3 Zrotation Xrotation Yrotation
                      End Site
                      {
                        OFFSET -0.2358 -1.9176 -0.0906
                      }
                    }
                  }
                }
                JOINT LeftFinger4
                {
                  OFFSET -0.6151 -8.0947 -3.5641
                  CHANNELS 3 Zrotation Xrotation Yrotation
                  JOINT LeftFinger41
                  {
                    OFFSET -0.4882 -2.341 -0.6462
                    CHANNELS 3 Zrotation Xrotation Yrotation
                    JOINT LeftFinger42
                    {
                      OFFSET -0.3575 -1.7167 -0.4742
                      CHANNELS 3 Zrotation Xrotation Yrotation
                      End Site
                      {
                        OFFSET -0.4187 -1.5237 -0.3496
                      }
                    }
                  }
                }
                JOINT LeftFinger0
                {
                  OFFSET -1.42 -1.8761 1.4223
                  CHANNELS 3 Zrotation Xrotation Yrotation
                  JOINT LeftFinger01
                  {
                    OFFSET -1.1471 -3.4929 2.6334
                    CHANNELS 3 Zrotation Xrotation Yrotation
                    JOINT LeftFinger02
                    {
                      OFFSET -0.823 -2.3 1.6571
                      CHANNELS 3 Zrotation Xrotation Yrotation
                      End Site
                      {
                        OFFSET -0.5822 -1.6914 1.1582
                      }
                    }
                  }
                }
              }
            }
          }
        }
        JOINT RightCollar
        {
          OFFSET -2.2603 21.606 7.4023
          CHANNELS 3 Zrotation Xrotation Yrotation
          JOINT RightShoulder
          {
            OFFSET -13.5187 -1.1334 -5.0155
            CHANNELS 3 Zrotation Xrotation Yrotation
            JOINT RightElbow
            {
              OFFSET 0.0994 -28.0499 -0.2431
              CHANNELS 3 Zrotation Xrotation Yrotation
              JOINT RightWrist
              {
                OFFSET -0.0679 -23.3996 -0.1402
                CHANNELS 3 Zrotation Xrotation Yrotation
                JOINT RightFinger1
                {
                  OFFSET -0.7932 -9.0691 2.5189
                  CHANNELS 3 Zrotation Xrotation Yrotation
                  JOINT RightFinger11
                  {
                    OFFSET 0.8272 -3.3923 0.5977
                    CHANNELS 3 Zrotation Xrotation Yrotation
                    JOINT RightFinger12
                    {
                      OFFSET 0.565 -2.3158 0.4082
                      CHANNELS 3 Zrotation Xrotation Yrotation
                      End Site
                      {
                        OFFSET 0.4919 -1.6479 0.2673
                      }
                    }
                  }
                }
                JOINT RightFinger2
                {
                  OFFSET -0.916 -9.2044 0.2193
                  CHANNELS 3 Zrotation Xrotation Yrotation
                  JOINT RightFinger21
                  {
                    OFFSET -0.0117 -4.1944 -0.0248
                    CHANNELS 3 Zrotation Xrotation Yrotation
                    JOINT RightFinger22
                    {
                      OFFSET -0.0071 -2.3249 -0.0142
                      CHANNELS 3 Zrotation Xrotation Yrotation
                      End Site
                      {
                        OFFSET 0.1475 -2.0882 0.0028
                      }
                    }
                  }
                }
                JOINT RightFinger3
                {
                  OFFSET -0.6113 -8.7231 -2.0637
                  CHANNELS 3 Zrotation Xrotation Yrotation
                  JOINT RightFinger31
                  {
                    OFFSET 0.1927 -3.8059 -0.2383
                    CHANNELS 3 Zrotation Xrotation Yrotation
                    JOINT RightFinger32
                    {
                      OFFSET 0.1091 -2.1688 -0.1362
                      CHANNELS 3 Zrotation Xrotation Yrotation
                      End Site
                      {
                        OFFSET 0.2358 -1.9176 -0.0906
                      }
                    }
                  }
                }
                JOINT RightFinger4
                {
                  OFFSET 0.6151 -8.0947 -3.564
                  CHANNELS 3 Zrotation Xrotation Yrotation
                  JOINT RightFinger41
                  {
                    OFFSET 0.4882 -2.341 -0.6462
                    CHANNELS 3 Zrotation Xrotation Yrotation
                    JOINT RightFinger42
                    {
                      OFFSET 0.3574 -1.7166 -0.4742
                      CHANNELS 3 Zrotation Xrotation Yrotation
                      End Site
                      {
                        OFFSET 0.4187 -1.5237 -0.3496
                      }
                    }
                  }
                }
                JOINT RightFinger0
                {
                  OFFSET 1.4199 -1.8761 1.4221
                  CHANNELS 3 Zrotation Xrotation Yrotation
                  JOINT RightFinger01
                  {
                    OFFSET 1.1472 -3.4929 2.6336
                    CHANNELS 3 Zrotation Xrotation Yrotation
                    JOINT RightFinger02
                    {
                      OFFSET 0.8229 -2.3 1.6571
                      CHANNELS 3 Zrotation Xrotation Yrotation
                      End Site
                      {
                        OFFSET 0.5822 -1.6914 1.1582
                      }
                    }
                  }
                }
              }
            }
          }
        }
      }
    }
  }
  JOINT RightHip
  {
    OFFSET -9.412 3.9771 -0.7758
    CHANNELS 3 Zrotation Xrotation Yrotation
    JOINT RightKnee
    {
      OFFSET -0.7531 -40.938 0
      CHANNELS 3 Zrotation Xrotation Yrotation
      JOINT RightAnkle
      {
        OFFSET 0 -40.1986 0
        CHANNELS 3 Zrotation Xrotation Yrotation
        JOINT RightToe
        {
          OFFSET 0 -4.4182 9.239
          CHANNELS 3 Zrotation Xrotation Yrotation
          End Site
          {
            OFFSET 0 0 6.1981
          }
        }
      }
    }
  }
  JOINT LeftHip
  {
    OFFSET 9.4119 3.9773 -0.7758
    CHANNELS 3 Zrotation Xrotation Yrotation
    JOINT LeftKnee
    {
      OFFSET 0.7532 -40.9383 0
      CHANNELS 3 Zrotation Xrotation Yrotation
      JOINT LeftAnkle
      {
        OFFSET 0 -40.1986 0
        CHANNELS 3 Zrotation Xrotation Yrotation
        JOINT LeftToe
        {
          OFFSET 0 -4.4182 9.239
          CHANNELS 3 Zrotation Xrotation Yrotation
          End Site
          {
            OFFSET 0 0 6.1981
          }
        }
      }
    }
  }
}
MOTION
Frames:	4
Frame Time:	0.0333333
5.72205e-005 65.662 3.42586 0 0 -0 0 0 -0 0 0 -0 0 0 -0 0 0 -0 0 0 -0 0 0 -12.5014 88.1196 14.2451 10.6914 -0.00160068 -0.00239207 0.000740045 -8.4365e-005 7.00714e-005 -9.52055e-007 9.93923e-017 -1.98785e-016 -1.59028e-015 9.93923e-017 -5.96354e-016 -1.59028e-015 -9.93923e-017 -5.96354e-016 -1.59028e-015 9.93923e-017 -1.98785e-016 -1.59028e-015 -0.0128176 0.00232552 8.52707e-005 9.93923e-017 5.96354e-016 -0 9.93923e-017 -1.98785e-016 -1.59028e-015 -0.0160551 0.00299681 0.000857156 -2.48481e-016 0 3.18055e-015 9.93923e-017 -1.98785e-016 -1.59028e-015 -0.0125865 0.0031206 0.00282719 0 1.98785e-016 -0 9.93923e-017 -1.98785e-016 -1.59028e-015 9.93923e-017 -5.96354e-016 -1.59028e-015 -9.93923e-017 -5.96354e-016 -1.59028e-015 -0.865644 0.16582 7.03859 -88.0329 10.2057 -10.5567 0.0015593 -0.00248883 -0.000788628 7.87605e-005 4.10553e-005 1.24965e-005 -3.97569e-016 -7.95139e-016 3.18055e-015 -1.98785e-016 -3.97569e-016 3.18055e-015 -1.98785e-016 0 3.18055e-015 -3.97569e-016 -7.95139e-016 3.18055e-015 0.0129473 0.00231697 -8.70038e-005 9.93923e-017 -7.95139e-016 1.59028e-015 -3.97569e-016 -7.95139e-016 3.18055e-015 0.0163314 0.00303369 -0.000872333 3.97569e-016 7.95139e-016 -3.18055e-015 -3.97569e-016 -7.95139e-016 3.18055e-015 0.0145763 0.00367772 -0.00326275 9.93923e-017 -3.97569e-016 -0 -3.97569e-016 -7.95139e-016 3.18055e-015 -1.98785e-016 -3.97569e-016 3.18055e-015 -1.98785e-016 0 3.18055e-015 3.42482 1.32465 -0.0626183 0.000117508 0.717283 0.000978199 -3.4257 -2.04197 -0.0604716 6.47761e-025 0 -0 -3.42483 1.34017 0.0627307 -0.000193936 0.682302 -0.0013703 3.42574 -2.02253 0.0595886 -8.45714e-024 0 -7.40531e-025 
9.07364 59.2923 -26.0679 -3.34275 -2.1526 41.7217 1.10465 1.0305 -0.0593764 2.2109 2.05967 -0.138611 2.2109 2.05967 -0.138621 0.704061 8.0617 -13.8605 1.84945 1.49829 -0.131843 2.11822e-005 1.96095e-005 -12.5014 54.4585 -6.63042 16.4925 -15.1743 -46.6652 -1.87432 8.3454 -5.9996 0.220878 -3.18055e-015 9.54166e-015 6.36111e-015 -3.18055e-015 9.54166e-015 -6.36111e-015 3.18055e-015 0 1.27222e-014 -3.18055e-015 9.54166e-015 6.36111e-015 -0.0127735 0.00232442 9.10173e-005 -6.36111e-015 1.59028e-014 6.36111e-015 -3.18055e-015 9.54166e-015 6.36111e-015 -0.0160864 0.00301313 0.000857167 1.25012e-005 -1.54277e-005 5.93668e-006 -3.18055e-015 9.54166e-015 6.36111e-015 -0.0126049 0.00312001 0.0028314 -0 -3.18055e-015 -0 -3.18055e-015 9.54166e-015 6.36111e-015 -3.18055e-015 9.54166e-015 -6.36111e-015 3.18055e-015 0 1.27222e-014 -0.865622 0.165838 7.03859 -60.0297 -4.46087 -13.6098 7.9038 -36.7062 3.3463 -5.79386 0.864829 -0.370349 -2.83217e-006 -1.06969e-005 1.08835e-005 -3.18055e-015 -1.59028e-015 -5.96354e-015 6.36111e-015 -3.18055e-015 -9.14409e-015 -2.83217e-006 -1.06969e-005 1.08835e-005 0.0129361 0.00232797 -0.000101848 -1.32417e-031 -3.18055e-015 -2.38542e-015 -2.83217e-006 -1.06969e-005 1.08835e-005 0.0162984 0.00303605 -0.000879035 -3.19759e-006 4.74746e-007 -6.51198e-007 -2.83217e-006 -1.06969e-005 1.08835e-005 0.0145715 0.00367058 -0.00326073 -3.18055e-015 -1.59028e-015 5.1684e-015 -2.83217e-006 -1.06969e-005 1.08835e-005 -3.18055e-015 -1.59028e-015 -5.96354e-015 6.36111e-015 -3.18055e-015 -9.14409e-015 0.343721 -16.0388 -8.51006 0.118457 30.2265 -0.575647 -3.51426 -4.09417 5.08161 3.56885e-007 -3.72513e-007 -2.63522e-006 -5.86924 -2.86134 -0.349964 0.194621 14.5714 -4.46899 2.47743 5.67239 -3.69598 -1.18183e-006 2.36463e-006 6.95728e-007 
17.4058 52.6429 -57.478 -4.79427 -0.664484 83.4045 2.20943 2.07174 -0.077298 4.426 4.13898 -0.234706 4.426 4.13897 -0.234723 5.26708 14.6875 -28.4514 3.70581 2.99657 -0.263949 -4.20662e-005 -4.34233e-005 -12.5014 24.8668 -30.692 21.2967 -120.326 -76.0813 -95.3913 16.7843 -11.9267 0.603311 -4.77083e-015 5.96354e-015 3.18055e-015 2.28555e-007 2.3678e-005 -2.37477e-006 3.73547e-006 -1.31457e-005 -3.66407e-007 -4.77083e-015 5.96354e-015 3.18055e-015 -0.0127695 0.00230826 8.08696e-005 1.59028e-015 -4.77083e-015 -0 -4.77083e-015 5.96354e-015 3.18055e-015 -0.0159837 0.00298455 0.000856148 -3.48433e-006 -3.64398e-006 -8.10412e-006 -4.77083e-015 5.96354e-015 3.18055e-015 -0.0125189 0.00310234 0.00281306 3.73533e-006 -3.54109e-006 -3.66171e-007 -4.77083e-015 5.96354e-015 3.18055e-015 2.28555e-007 2.3678e-005 -2.37477e-006 3.73547e-006 -1.31457e-005 -3.66407e-007 -0.865683 0.165781 7.03858 -33.4272 -20.49 -16.1482 34.9463 -71.4108 27.1259 -11.5662 1.77243 -0.831412 3.18055e-015 -4.77083e-015 -3.18055e-015 1.43452e-031 -5.1684e-015 1.59028e-015 -2.64834e-031 -4.77083e-015 -3.18055e-015 3.18055e-015 -4.77083e-015 -3.18055e-015 0.0129902 0.0023324 -8.68559e-005 1.59028e-015 -1.07344e-014 -1.59028e-015 3.18055e-015 -4.77083e-015 -3.18055e-015 0.0163594 0.00304437 -0.000870657 -1.59028e-015 -6.75868e-015 1.59028e-015 3.18055e-015 -4.77083e-015 -3.18055e-015 0.0145834 0.00367138 -0.00327296 1.59028e-015 -3.18055e-015 -3.18055e-015 3.18055e-015 -4.77083e-015 -3.18055e-015 1.43452e-031 -5.1684e-015 1.59028e-015 -2.64834e-031 -4.77083e-015 -3.18055e-015 -7.74356 -31.2018 -19.1 0.056589 57.2776 -1.15651 -3.52736 -4.91799 10.2196 -8.86059e-006 3.38766e-005 1.5473e-005 -8.29378 -7.97672 -0.79074 2.93678 29.8787 -9.84123 2.85892 12.4619 -7.62846 -3.79536e-007 -2.30188e-006 1.67401e-006 
22.0596 48.1453 -80.1491 -7.00929 2.97739 112.364 2.98183 2.80615 -0.0650836 5.97759 5.60509 -0.276899 5.97761 5.60509 -0.276879 10.5023 17.7152 -39.2311 5.00897 3.98124 -0.351092 4.52498e-005 4.56682e-005 -12.5014 6.436 -48.2947 25.0684 -170.547 -48.553 -137.241 22.776 -16.0157 0.972959 6.36111e-015 1.98785e-016 -3.97569e-016 3.18055e-015 1.98785e-016 -3.97569e-016 1.37935e-033 1.98785e-016 -3.97569e-016 6.36111e-015 1.98785e-016 -3.97569e-016 -0.0128966 0.00230663 9.6402e-005 3.18055e-015 -1.03368e-014 7.95139e-016 6.36111e-015 1.98785e-016 -3.97569e-016 -0.0159941 0.00296341 0.000847879 -6.35735e-006 3.19524e-006 -1.11586e-006 6.36111e-015 1.98785e-016 -3.97569e-016 -0.0127059 0.00315099 0.00284707 1.24141e-032 -1.78906e-015 3.97569e-016 6.36111e-015 1.98785e-016 -3.97569e-016 3.18055e-015 1.98785e-016 -3.97569e-016 1.37935e-033 1.98785e-016 -3.97569e-016 -0.865598 0.165866 7.03859 -15.3546 -32.3791 -17.6035 134.491 -74.2393 124.605 -15.5445 2.43691 -1.25642 -1.59028e-015 -3.57812e-015 3.18055e-015 7.95139e-016 -5.96354e-015 -0 -8.18258e-006 8.85037e-006 1.70418e-006 -1.59028e-015 -3.57812e-015 3.18055e-015 0.0129517 0.00233227 -7.83193e-005 4.4287e-006 -3.82299e-006 -2.39068e-006 -1.59028e-015 -3.57812e-015 3.18055e-015 0.016406 0.00304543 -0.000875397 1.37625e-006 4.98294e-007 1.40693e-006 -1.59028e-015 -3.57812e-015 3.18055e-015 0.0144901 0.00366772 -0.0032376 -2.71601e-006 5.3283e-007 2.25876e-006 -1.59028e-015 -3.57812e-015 3.18055e-015 7.95139e-016 -5.96354e-015 -0 -8.18258e-006 8.85037e-006 1.70418e-006 -17.3385 -40.2055 -29.1858 0.0272465 75.8867 -1.6382 -3.53804 -5.43057 13.7549 2.59629e-006 -1.62261e-005 7.03689e-007 -10.3143 -11.5598 -1.1108 7.73073 40.0985 -15.4035 3.62636 17.1022 -10.483 7.81007e-007 3.85435e-006 1.64325e-007 
